<svg width="513" height="1091" viewBox="0 0 513 1091" fill="none" xmlns="http://www.w3.org/2000/svg">
<path fill-rule="evenodd" clip-rule="evenodd" d="M51 85.3626L20.0983 100L23.7888 64.5751L1 38.1966L34.1825 30.9402L51 0L67.8175 30.9402L101 38.1966L78.2112 64.5751L81.9017 100L51 85.3626Z" fill="#FACC15"/>
<path fill-rule="evenodd" clip-rule="evenodd" d="M51 195.363L20.0983 210L23.7888 174.575L1 148.197L34.1825 140.94L51 110L67.8175 140.94L101 148.197L78.2112 174.575L81.9017 210L51 195.363Z" fill="#FACC15"/>
<path fill-rule="evenodd" clip-rule="evenodd" d="M154 85.3626L123.098 100L126.789 64.5751L104 38.1966L137.183 30.9402L154 0L170.817 30.9402L204 38.1966L181.211 64.5751L184.902 100L154 85.3626Z" fill="#FACC15"/>
<path fill-rule="evenodd" clip-rule="evenodd" d="M154 195.363L123.098 210L126.789 174.575L104 148.197L137.183 140.94L154 110L170.817 140.94L204 148.197L181.211 174.575L184.902 210L154 195.363Z" fill="#FACC15"/>
<path fill-rule="evenodd" clip-rule="evenodd" d="M257 85.3626L226.098 100L229.789 64.5751L207 38.1966L240.183 30.9402L257 0L273.817 30.9402L307 38.1966L284.211 64.5751L287.902 100L257 85.3626Z" fill="#FACC15"/>
<path fill-rule="evenodd" clip-rule="evenodd" d="M257 195.363L226.098 210L229.789 174.575L207 148.197L240.183 140.94L257 110L273.817 140.94L307 148.197L284.211 174.575L287.902 210L257 195.363Z" fill="#FACC15"/>
<path fill-rule="evenodd" clip-rule="evenodd" d="M360 85.3626L329.098 100L332.789 64.5751L310 38.1966L343.183 30.9402L360 0L376.817 30.9402L410 38.1966L387.211 64.5751L390.902 100L360 85.3626Z" fill="#FACC15"/>
<path fill-rule="evenodd" clip-rule="evenodd" d="M360 195.363L329.098 210L332.789 174.575L310 148.197L343.183 140.94L360 110L376.817 140.94L410 148.197L387.211 174.575L390.902 210L360 195.363Z" fill="#FACC15"/>
<path fill-rule="evenodd" clip-rule="evenodd" d="M463 85.3626L432.098 100L435.789 64.5751L413 38.1966L446.183 30.9402L463 0L479.817 30.9402L513 38.1966L490.211 64.5751L493.902 100L463 85.3626Z" fill="#FACC15"/>
<path fill-rule="evenodd" clip-rule="evenodd" d="M51 305.363L20.0983 320L23.7888 284.575L1 258.197L34.1825 250.94L51 220L67.8175 250.94L101 258.197L78.2112 284.575L81.9017 320L51 305.363Z" fill="#FACC15"/>
<path fill-rule="evenodd" clip-rule="evenodd" d="M51 415.363L20.0983 430L23.7888 394.575L1 368.197L34.1825 360.94L51 330L67.8175 360.94L101 368.197L78.2112 394.575L81.9017 430L51 415.363Z" fill="#FACC15"/>
<path fill-rule="evenodd" clip-rule="evenodd" d="M51 525.363L20.0983 540L23.7888 504.575L1 478.197L34.1825 470.94L51 440L67.8175 470.94L101 478.197L78.2112 504.575L81.9017 540L51 525.363Z" fill="#FACC15"/>
<path fill-rule="evenodd" clip-rule="evenodd" d="M51 635.363L20.0983 650L23.7888 614.575L1 588.197L34.1825 580.94L51 550L67.8175 580.94L101 588.197L78.2112 614.575L81.9017 650L51 635.363Z" fill="#FACC15"/>
<path fill-rule="evenodd" clip-rule="evenodd" d="M51 745.363L20.0983 760L23.7888 724.575L1 698.197L34.1825 690.94L51 660L67.8175 690.94L101 698.197L78.2112 724.575L81.9017 760L51 745.363Z" fill="#FACC15"/>
<path fill-rule="evenodd" clip-rule="evenodd" d="M51 855.363L20.0983 870L23.7888 834.575L1 808.197L34.1825 800.94L51 770L67.8175 800.94L101 808.197L78.2112 834.575L81.9017 870L51 855.363Z" fill="#FACC15"/>
<path fill-rule="evenodd" clip-rule="evenodd" d="M51 965.363L20.0983 980L23.7888 944.575L1 918.197L34.1825 910.94L51 880L67.8175 910.94L101 918.197L78.2112 944.575L81.9017 980L51 965.363Z" fill="#FACC15"/>
<path fill-rule="evenodd" clip-rule="evenodd" d="M154 305.363L123.098 320L126.789 284.575L104 258.197L137.183 250.94L154 220L170.817 250.94L204 258.197L181.211 284.575L184.902 320L154 305.363Z" fill="#FACC15"/>
<path fill-rule="evenodd" clip-rule="evenodd" d="M154 415.363L123.098 430L126.789 394.575L104 368.197L137.183 360.94L154 330L170.817 360.94L204 368.197L181.211 394.575L184.902 430L154 415.363Z" fill="#FACC15"/>
<path fill-rule="evenodd" clip-rule="evenodd" d="M154 525.363L123.098 540L126.789 504.575L104 478.197L137.183 470.94L154 440L170.817 470.94L204 478.197L181.211 504.575L184.902 540L154 525.363Z" fill="#FACC15"/>
<path fill-rule="evenodd" clip-rule="evenodd" d="M154 635.363L123.098 650L126.789 614.575L104 588.197L137.183 580.94L154 550L170.817 580.94L204 588.197L181.211 614.575L184.902 650L154 635.363Z" fill="#FACC15"/>
<path fill-rule="evenodd" clip-rule="evenodd" d="M154 745.363L123.098 760L126.789 724.575L104 698.197L137.183 690.94L154 660L170.817 690.94L204 698.197L181.211 724.575L184.902 760L154 745.363Z" fill="#FACC15"/>
<path fill-rule="evenodd" clip-rule="evenodd" d="M257 305.363L226.098 320L229.789 284.575L207 258.197L240.183 250.94L257 220L273.817 250.94L307 258.197L284.211 284.575L287.902 320L257 305.363Z" fill="#FACC15"/>
<path fill-rule="evenodd" clip-rule="evenodd" d="M257 415.363L226.098 430L229.789 394.575L207 368.197L240.183 360.94L257 330L273.817 360.94L307 368.197L284.211 394.575L287.902 430L257 415.363Z" fill="#FACC15"/>
<path fill-rule="evenodd" clip-rule="evenodd" d="M257 525.363L226.098 540L229.789 504.575L207 478.197L240.183 470.94L257 440L273.817 470.94L307 478.197L284.211 504.575L287.902 540L257 525.363Z" fill="#FACC15"/>
<path fill-rule="evenodd" clip-rule="evenodd" d="M360 305.363L329.098 320L332.789 284.575L310 258.197L343.183 250.94L360 220L376.817 250.94L410 258.197L387.211 284.575L390.902 320L360 305.363Z" fill="#FACC15"/>
<path fill-rule="evenodd" clip-rule="evenodd" d="M360 415.363L329.098 430L332.789 394.575L310 368.197L343.183 360.94L360 330L376.817 360.94L410 368.197L387.211 394.575L390.902 430L360 415.363Z" fill="#FACC15" fill-opacity="0.2"/>
<path d="M359.737 415.338V330.279L342.914 360.956L310.056 368.486L332.662 394.701L329.508 429.84L359.737 415.338Z" fill="#FACC15" stroke="#FACC15"/>
<path fill-rule="evenodd" clip-rule="evenodd" d="M463 195.363L432.098 210L435.789 174.575L413 148.197L446.183 140.94L463 110L479.817 140.94L513 148.197L490.211 174.575L493.902 210L463 195.363Z" fill="#FACC15" fill-opacity="0.2"/>
<path d="M462.737 195.338V110.279L445.914 140.956L413.056 148.486L435.662 174.701L432.508 209.84L462.737 195.338Z" fill="#FACC15" stroke="#FACC15"/>
<path fill-rule="evenodd" clip-rule="evenodd" d="M257 635.363L226.098 650L229.789 614.575L207 588.197L240.183 580.94L257 550L273.817 580.94L307 588.197L284.211 614.575L287.902 650L257 635.363Z" fill="#FACC15" fill-opacity="0.2"/>
<path d="M256.737 635.338V550.279L239.914 580.956L207.056 588.486L229.662 614.701L226.508 649.84L256.737 635.338Z" fill="#FACC15" stroke="#FACC15"/>
<path fill-rule="evenodd" clip-rule="evenodd" d="M154 855.363L123.098 870L126.789 834.575L104 808.197L137.183 800.94L154 770L170.817 800.94L204 808.197L181.211 834.575L184.902 870L154 855.363Z" fill="#FACC15" fill-opacity="0.2"/>
<path d="M153.737 855.338V770.279L136.914 800.956L104.056 808.486L126.662 834.701L123.508 869.84L153.737 855.338Z" fill="#FACC15" stroke="#FACC15"/>
<path fill-rule="evenodd" clip-rule="evenodd" d="M51 1075.36L20.0983 1090L23.7888 1054.58L1 1028.2L34.1825 1020.94L51 990L67.8175 1020.94L101 1028.2L78.2112 1054.58L81.9017 1090L51 1075.36Z" fill="#FACC15" fill-opacity="0.2"/>
<path d="M50.7371 1075.34V990.279L33.9137 1020.96L1.05554 1028.49L23.662 1054.7L20.5076 1089.84L50.7371 1075.34Z" fill="#FACC15" stroke="#FACC15"/>
<path fill-rule="evenodd" clip-rule="evenodd" d="M463 305.363L432.098 320L435.789 284.575L413 258.197L446.183 250.94L463 220L479.817 250.94L513 258.197L490.211 284.575L493.902 320L463 305.363Z" fill="#FACC15" fill-opacity="0.2"/>
<path fill-rule="evenodd" clip-rule="evenodd" d="M463 415.363L432.098 430L435.789 394.575L413 368.197L446.183 360.94L463 330L479.817 360.94L513 368.197L490.211 394.575L493.902 430L463 415.363Z" fill="#FACC15" fill-opacity="0.2"/>
<path fill-rule="evenodd" clip-rule="evenodd" d="M463 525.363L432.098 540L435.789 504.575L413 478.197L446.183 470.94L463 440L479.817 470.94L513 478.197L490.211 504.575L493.902 540L463 525.363Z" fill="#FACC15" fill-opacity="0.2"/>
<path fill-rule="evenodd" clip-rule="evenodd" d="M463 635.363L432.098 650L435.789 614.575L413 588.197L446.183 580.94L463 550L479.817 580.94L513 588.197L490.211 614.575L493.902 650L463 635.363Z" fill="#FACC15" fill-opacity="0.2"/>
<path fill-rule="evenodd" clip-rule="evenodd" d="M463 745.363L432.098 760L435.789 724.575L413 698.197L446.183 690.94L463 660L479.817 690.94L513 698.197L490.211 724.575L493.902 760L463 745.363Z" fill="#FACC15" fill-opacity="0.2"/>
<path fill-rule="evenodd" clip-rule="evenodd" d="M463 855.363L432.098 870L435.789 834.575L413 808.197L446.183 800.94L463 770L479.817 800.94L513 808.197L490.211 834.575L493.902 870L463 855.363Z" fill="#FACC15" fill-opacity="0.2"/>
<path fill-rule="evenodd" clip-rule="evenodd" d="M463 965.363L432.098 980L435.789 944.575L413 918.197L446.183 910.94L463 880L479.817 910.94L513 918.197L490.211 944.575L493.902 980L463 965.363Z" fill="#FACC15" fill-opacity="0.2"/>
<path fill-rule="evenodd" clip-rule="evenodd" d="M463 1075.36L432.098 1090L435.789 1054.58L413 1028.2L446.183 1020.94L463 990L479.817 1020.94L513 1028.2L490.211 1054.58L493.902 1090L463 1075.36Z" fill="#FACC15" fill-opacity="0.2"/>
<path fill-rule="evenodd" clip-rule="evenodd" d="M360 525.363L329.098 540L332.789 504.575L310 478.197L343.183 470.94L360 440L376.817 470.94L410 478.197L387.211 504.575L390.902 540L360 525.363Z" fill="#FACC15" fill-opacity="0.2"/>
<path fill-rule="evenodd" clip-rule="evenodd" d="M360 635.363L329.098 650L332.789 614.575L310 588.197L343.183 580.94L360 550L376.817 580.94L410 588.197L387.211 614.575L390.902 650L360 635.363Z" fill="#FACC15" fill-opacity="0.2"/>
<path fill-rule="evenodd" clip-rule="evenodd" d="M360 745.363L329.098 760L332.789 724.575L310 698.197L343.183 690.94L360 660L376.817 690.94L410 698.197L387.211 724.575L390.902 760L360 745.363Z" fill="#FACC15" fill-opacity="0.2"/>
<path fill-rule="evenodd" clip-rule="evenodd" d="M360 855.363L329.098 870L332.789 834.575L310 808.197L343.183 800.94L360 770L376.817 800.94L410 808.197L387.211 834.575L390.902 870L360 855.363Z" fill="#FACC15" fill-opacity="0.2"/>
<path fill-rule="evenodd" clip-rule="evenodd" d="M360 965.363L329.098 980L332.789 944.575L310 918.197L343.183 910.94L360 880L376.817 910.94L410 918.197L387.211 944.575L390.902 980L360 965.363Z" fill="#FACC15" fill-opacity="0.2"/>
<path fill-rule="evenodd" clip-rule="evenodd" d="M360 1075.36L329.098 1090L332.789 1054.58L310 1028.2L343.183 1020.94L360 990L376.817 1020.94L410 1028.2L387.211 1054.58L390.902 1090L360 1075.36Z" fill="#FACC15" fill-opacity="0.2"/>
<path fill-rule="evenodd" clip-rule="evenodd" d="M257 745.363L226.098 760L229.789 724.575L207 698.197L240.183 690.94L257 660L273.817 690.94L307 698.197L284.211 724.575L287.902 760L257 745.363Z" fill="#FACC15" fill-opacity="0.2"/>
<path fill-rule="evenodd" clip-rule="evenodd" d="M257 855.363L226.098 870L229.789 834.575L207 808.197L240.183 800.94L257 770L273.817 800.94L307 808.197L284.211 834.575L287.902 870L257 855.363Z" fill="#FACC15" fill-opacity="0.2"/>
<path fill-rule="evenodd" clip-rule="evenodd" d="M257 965.363L226.098 980L229.789 944.575L207 918.197L240.183 910.94L257 880L273.817 910.94L307 918.197L284.211 944.575L287.902 980L257 965.363Z" fill="#FACC15" fill-opacity="0.2"/>
<path fill-rule="evenodd" clip-rule="evenodd" d="M257 1075.36L226.098 1090L229.789 1054.58L207 1028.2L240.183 1020.94L257 990L273.817 1020.94L307 1028.2L284.211 1054.58L287.902 1090L257 1075.36Z" fill="#FACC15" fill-opacity="0.2"/>
<path fill-rule="evenodd" clip-rule="evenodd" d="M154 965.363L123.098 980L126.789 944.575L104 918.197L137.183 910.94L154 880L170.817 910.94L204 918.197L181.211 944.575L184.902 980L154 965.363Z" fill="#FACC15" fill-opacity="0.2"/>
<path fill-rule="evenodd" clip-rule="evenodd" d="M154 1075.36L123.098 1090L126.789 1054.58L104 1028.2L137.183 1020.94L154 990L170.817 1020.94L204 1028.2L181.211 1054.58L184.902 1090L154 1075.36Z" fill="#FACC15" fill-opacity="0.2"/>
</svg>
